<svg height="512" viewBox="0 0 64 64" width="512" xmlns="http://www.w3.org/2000/svg" xmlns:xlink="http://www.w3.org/1999/xlink"><linearGradient id="linear-gradient" gradientUnits="userSpaceOnUse" x1="-2.132" x2="63.093" y1="32" y2="32"><stop offset="0" stop-color="#f9a86d"/><stop offset=".503" stop-color="#f05361"/><stop offset="1" stop-color="#b72563"/></linearGradient><linearGradient id="linear-gradient-2" x1="-2.132" x2="63.093" xlink:href="#linear-gradient" y1="23" y2="23"/><linearGradient id="linear-gradient-3" x1="-2.132" x2="63.093" xlink:href="#linear-gradient" y1="25.5" y2="25.5"/><linearGradient id="linear-gradient-4" x1="-2.132" x2="63.093" xlink:href="#linear-gradient" y1="55" y2="55"/><g id="Gradient_outline" data-name="Gradient outline"><path d="m61 2h-58a1 1 0 0 0 -1 1v3a1.006 1.006 0 0 0 .168.555l1.832 2.745v51.7a1 1 0 0 0 1 1h54a1 1 0 0 0 1-1v-51.7l1.832-2.748a1.006 1.006 0 0 0 .168-.552v-3a1 1 0 0 0 -1-1zm-40 58v-10h10v10zm0-12v-2h22v2zm-3-4v-2h28v2zm27 2h3v-6h-32v6h3v10h-9v-18h44v18h-9zm-12 14v-10h10v10zm25 0h-13v-2h11v-22h-48v22h11v2h-13v-50h52zm2-54.3-1.535 2.3h-52.93l-1.535-2.3v-1.7h3v2h2v-2h3v2h2v-2h22v2h2v-2h10v2h2v-2h10z" fill="url(#linear-gradient)"/><path d="m56 12h-48v22h48zm-19 20h-25.586l4.293-4.293-1.414-1.414-4.293 4.293v-3.172l6.707-6.707-1.414-1.414-5.293 5.293v-10.586h36.586l-5.293 5.293 1.414 1.414 6.707-6.707h3.172l-4.293 4.293 1.414 1.414 4.293-4.293v16.586z" fill="url(#linear-gradient-2)"/><path d="m39.829 30h6.171v-6.847l-6.581-1.1-3.847-3.053h-10.793l-4.779 4.886v6.114h4.171a3 3 0 0 0 5.658 0h4.342a3 3 0 0 0 5.658 0zm-1.829-1a1 1 0 0 1 -2 0v-1h-8v1a1 1 0 0 1 -2 0v-1h-4v-3.3l3.621-3.7h9.254l3.706 2.944 5.419.9v3.156h-6z" fill="url(#linear-gradient-3)"/><g fill="url(#linear-gradient-4)"><path d="m27 54h2v2h-2z"/><path d="m35 54h2v2h-2z"/></g></g></svg>